Coordinates
version=1
nRows=54
nColumns=12
inDegrees=yes

Units are S.I. units (second, meters, Newtons, ...)
Angles are in degrees

endheader
time	SC_y	SC_z	SC_x	AC_y	AC_z	AC_x	GH_y	GH_z	GH_yy	EL_x	PS_y
       0.0              -26.85         -4.278          11.09          32.11          6.276        0.02933         -47.14          26.65         -160.9          53.23          105.5
   0.00965              -26.85         -4.273          11.09          32.11          6.276        0.02756         -47.13          26.66         -160.8          53.23          105.5
    0.0193              -26.85         -4.267          11.09          32.11          6.276        0.02567         -47.13          26.67         -160.8          53.23          105.5
   0.02895              -26.85          -4.26          11.09          32.11          6.275        0.02366         -47.13          26.68         -160.8          53.23          105.5
    0.0386              -26.85         -4.254          11.09          32.11          6.275        0.02153         -47.12          26.69         -160.7          53.23          105.5
   0.04825              -26.85         -4.247          11.09          32.11          6.275        0.01925         -47.12           26.7         -160.7          53.23          105.4
    0.0579              -26.86         -4.239          11.09          32.11          6.275        0.01681         -47.11          26.72         -160.6          53.23          105.4
   0.06755              -26.86         -4.231          11.09          32.12          6.274        0.01421         -47.11          26.73         -160.6          53.23          105.4
    0.0772              -26.86         -4.222          11.09          32.12          6.274        0.01143          -47.1          26.74         -160.5          53.23          105.4
   0.08685              -26.86         -4.213          11.09          32.12          6.273        0.00844         -47.09          26.76         -160.5          53.23          105.4
    0.0965              -26.86         -4.203          11.09          32.12          6.273        0.00523         -47.09          26.77         -160.4          53.23          105.4
    0.1061              -26.87         -4.192          11.09          32.12          6.273       0.001776         -47.08          26.79         -160.3          53.23          105.3
    0.1158              -26.87         -4.181          11.09          32.13          6.272      -0.001948         -47.07          26.81         -160.3          53.23          105.3
    0.1254              -26.87         -4.168          11.09          32.13          6.271       -0.00597         -47.06          26.83         -160.2          53.23          105.3
    0.1351              -26.87         -4.155          11.09          32.13          6.271       -0.01032         -47.06          26.85         -160.1          53.23          105.3
    0.1447              -26.87          -4.14          11.09          32.14           6.27       -0.01504         -47.05          26.88         -160.0          53.23          105.2
    0.1544              -26.88         -4.124          11.09          32.14           6.27       -0.02017         -47.03          26.91         -159.9          53.23          105.2
     0.164              -26.88         -4.106          11.09          32.14          6.269       -0.02576         -47.02          26.93         -159.8          53.23          105.2
    0.1737              -26.88         -4.087          11.09          32.15          6.268       -0.03187         -47.01          26.97         -159.7          53.24          105.1
    0.1833              -26.89         -4.067          11.09          32.15          6.267       -0.03855          -47.0           27.0         -159.5          53.24          105.1
     0.193              -26.89         -4.044          11.09          32.16          6.266       -0.04588         -46.98          27.04         -159.4          53.24          105.1
    0.2026               -26.9         -4.019          11.09          32.16          6.265       -0.05396         -46.96          27.08         -159.2          53.24          105.0
    0.2123               -26.9         -3.991          11.09          32.17          6.264       -0.06288         -46.94          27.12         -159.0          53.24          105.0
    0.2219              -26.91          -3.96          11.09          32.17          6.262       -0.07276         -46.92          27.18         -158.9          53.24          104.9
    0.2316              -26.91         -3.926          11.09          32.18          6.261       -0.08374          -46.9          27.23         -158.6          53.24          104.8
    0.2412              -26.92         -3.888          11.09          32.19          6.259         -0.096         -46.87           27.3         -158.4          53.25          104.8
    0.2509              -26.93         -3.845          11.09           32.2          6.257        -0.1097         -46.85          27.37         -158.1          53.25          104.7
    0.2605              -26.94         -3.797          11.09          32.21          6.255        -0.1252         -46.81          27.45         -157.8          53.25          104.6
    0.2702              -26.95         -3.742          11.09          32.22          6.253        -0.1426         -46.78          27.53         -157.5          53.25          104.5
    0.2798              -26.96         -3.681          11.09          32.23           6.25        -0.1625         -46.73          27.64         -157.1          53.26          104.4
    0.2895              -26.97          -3.61          11.09          32.25          6.247        -0.1851         -46.69          27.75         -156.6          53.26          104.2
    0.2991              -26.99         -3.529          11.09          32.27          6.244         -0.211         -46.63          27.89         -156.1          53.27          104.1
    0.3088              -27.01         -3.436          11.09          32.29           6.24         -0.241         -46.57          28.04         -155.5          53.27          103.9
    0.3184              -27.03         -3.327          11.09          32.31          6.235        -0.2758          -46.5          28.22         -154.8          53.28          103.7
    0.3281              -27.05           -3.2          11.09          32.34          6.229        -0.3166         -46.41          28.43         -154.0          53.28          103.5
    0.3377              -27.08         -3.051          11.09          32.37          6.223        -0.3646         -46.31          28.68         -153.1          53.29          103.2
    0.3474              -27.11         -2.873          11.09          32.41          6.215        -0.4217         -46.19          28.97         -151.9           53.3          102.8
     0.357              -27.15          -2.66          11.09          32.45          6.206        -0.4901         -46.04          29.32         -150.6          53.31          102.4
    0.3667               -27.2         -2.402          11.09          32.51          6.195        -0.5729         -45.87          29.75         -148.9          53.33          102.0
    0.3763              -27.26         -2.087          11.09          32.57          6.181         -0.674         -45.66          30.27         -146.9          53.34          101.4
     0.386              -27.33         -1.698          11.09          32.66          6.164        -0.7988         -45.39          30.91         -144.5          53.36          100.6
    0.3956              -27.42         -1.213          11.09          32.76          6.143        -0.9545         -45.06          31.71         -141.4          53.39           99.7
    0.4053              -27.53        -0.6019          11.09          32.89          6.117         -1.151         -44.65          32.72         -137.5          53.42          98.54
    0.4149              -27.67         0.1746          11.09          33.06          6.083           -1.4         -44.13           34.0         -132.6          53.47          97.07
    0.4246              -27.86          1.169          11.09          33.27           6.04         -1.719         -43.45          35.64         -126.3          53.52          95.18
    0.4342              -28.09          2.444          11.09          33.54          5.984         -2.128         -42.59          37.74         -118.1          53.59          92.77
    0.4439               -28.4          4.073          11.09          33.89          5.914         -2.651         -41.49          40.43         -107.8          53.68          89.68
    0.4535              -28.78          6.122          11.09          34.32          5.825         -3.309          -40.1          43.81         -94.76          53.79          85.79
    0.4632              -29.24          8.619          11.09          34.86          5.716          -4.11         -38.41          47.93         -78.89          53.92          81.06
    0.4728              -29.78          11.51          11.09          35.47          5.591         -5.039         -36.45           52.7         -60.49          54.08          75.58
    0.4825              -30.36          14.65          11.09          36.14          5.455         -6.044         -34.33          57.87         -40.58          54.25          69.64
    0.4921              -30.94          17.78           11.1          36.81          5.319          -7.05         -32.21          63.04         -20.66          54.41           63.7
    0.5018              -31.47          20.67           11.1          37.42          5.193         -7.979         -30.25          67.81          -2.26          54.57          58.21
    0.5114              -31.94          23.17           11.1          37.96          5.085          -8.78         -28.56          71.93          13.61           54.7          53.48
